<?xml version="1.0" standalone="no"?>
<!DOCTYPE svg PUBLIC "-//W3C//DTD SVG 20010904//EN"
 "http://www.w3.org/TR/2001/REC-SVG-20010904/DTD/svg10.dtd">
<svg version="1.0" xmlns="http://www.w3.org/2000/svg"
 width="512.000000pt" height="512.000000pt" viewBox="0 0 512.000000 512.000000"
 preserveAspectRatio="xMidYMid meet">

<g transform="translate(0.000000,512.000000) scale(0.100000,-0.100000)"
fill="#000000" stroke="none">
<path d="M688 5099 c-23 -12 -46 -35 -58 -59 -20 -39 -20 -54 -20 -2480 0
-2427 0 -2441 20 -2480 13 -26 34 -47 60 -60 39 -20 55 -20 1870 -20 1815 0
1831 0 1870 20 26 13 47 34 60 60 20 39 20 55 20 2030 0 1803 -2 1994 -16
2023 -22 44 -920 944 -966 968 -36 19 -72 19 -1420 19 -1357 -1 -1384 -1
-1420 -21z m2622 -669 c0 -372 1 -393 20 -430 13 -26 34 -47 60 -60 37 -19 58
-20 430 -20 l390 0 0 -1810 0 -1810 -1650 0 -1650 0 0 2260 0 2260 1200 0
1200 0 0 -390z m495 -20 l190 -190 -193 0 -192 0 0 190 c0 105 1 190 3 190 1
0 88 -85 192 -190z"/>
<path d="M1288 3579 c-68 -35 -78 -71 -78 -279 0 -161 2 -185 20 -220 23 -45
80 -80 130 -80 50 0 107 35 130 80 16 31 20 59 20 130 l0 90 150 0 150 0 0
-450 0 -450 -90 0 c-71 0 -99 -4 -130 -20 -45 -23 -80 -80 -80 -130 0 -50 35
-107 80 -130 37 -19 58 -20 370 -20 312 0 333 1 370 20 45 23 80 80 80 130 0
50 -35 107 -80 130 -31 16 -59 20 -130 20 l-90 0 0 450 0 450 150 0 150 0 0
-90 c0 -71 4 -99 20 -130 23 -45 80 -80 130 -80 50 0 107 35 130 80 18 35 20
59 20 220 0 210 -10 244 -80 280 -38 19 -57 20 -672 20 -610 -1 -634 -2 -670
-21z"/>
<path d="M3088 3579 c-43 -22 -78 -81 -78 -129 0 -50 35 -107 80 -130 37 -19
58 -20 370 -20 312 0 333 1 370 20 45 23 80 80 80 130 0 50 -35 107 -80 130
-37 19 -58 20 -372 20 -312 -1 -335 -2 -370 -21z"/>
<path d="M3088 2979 c-43 -22 -78 -81 -78 -129 0 -50 35 -107 80 -130 37 -19
58 -20 370 -20 312 0 333 1 370 20 45 23 80 80 80 130 0 50 -35 107 -80 130
-37 19 -58 20 -372 20 -312 -1 -335 -2 -370 -21z"/>
<path d="M3088 2379 c-43 -22 -78 -81 -78 -129 0 -50 35 -107 80 -130 37 -19
58 -20 370 -20 312 0 333 1 370 20 45 23 80 80 80 130 0 50 -35 107 -80 130
-37 19 -58 20 -372 20 -312 -1 -335 -2 -370 -21z"/>
<path d="M1288 1779 c-43 -22 -78 -81 -78 -129 0 -50 35 -107 80 -130 39 -20
56 -20 1270 -20 1214 0 1231 0 1270 20 45 23 80 80 80 130 0 50 -35 107 -80
130 -39 20 -56 20 -1272 20 -1208 -1 -1234 -1 -1270 -21z"/>
<path d="M1288 1179 c-43 -22 -78 -81 -78 -129 0 -50 35 -107 80 -130 39 -20
56 -20 1270 -20 1214 0 1231 0 1270 20 45 23 80 80 80 130 0 50 -35 107 -80
130 -39 20 -56 20 -1272 20 -1208 -1 -1234 -1 -1270 -21z"/>
</g>
</svg>
