<?xml version="1.0" standalone="no"?>
<!DOCTYPE svg PUBLIC "-//W3C//DTD SVG 20010904//EN"
 "http://www.w3.org/TR/2001/REC-SVG-20010904/DTD/svg10.dtd">
<svg version="1.0" xmlns="http://www.w3.org/2000/svg"
 width="512.000000pt" height="512.000000pt" viewBox="0 0 512.000000 512.000000"
 preserveAspectRatio="xMidYMid meet">

<g transform="translate(0.000000,512.000000) scale(0.100000,-0.100000)"
fill="#000000" stroke="none">
<path d="M1451 4685 c-1273 -295 -1396 -325 -1420 -349 l-26 -26 -3 -1841 c-2
-1985 -5 -1884 47 -1916 27 -17 2819 -446 2857 -438 64 11 68 27 74 234 l5
186 1036 3 1036 2 26 26 c15 15 29 40 32 58 3 17 4 901 3 1963 l-3 1933 -28
27 -27 28 -1038 5 -1037 5 -6 190 c-3 105 -6 191 -7 193 -12 15 -74 42 -97 41
-16 -1 -657 -146 -1424 -324z m3457 -2128 l2 -1817 -962 2 -963 3 0 215 0 215
826 5 c793 5 828 6 848 24 40 36 36 122 -7 158 -12 10 -189 14 -841 18 l-826
5 0 215 0 215 826 5 c793 5 828 6 848 24 40 36 36 122 -7 158 -12 10 -189 14
-841 18 l-826 5 0 215 0 215 826 5 c793 5 828 6 848 24 40 36 36 122 -7 158
-12 10 -189 14 -841 18 l-826 5 0 215 0 215 826 5 c793 5 828 6 848 24 40 36
36 122 -7 158 -12 10 -189 14 -841 18 l-826 5 0 215 0 215 826 5 c793 5 828 6
848 24 40 36 36 122 -7 158 -12 10 -189 14 -841 18 l-826 5 -3 205 c-1 112 0
210 2 217 4 11 192 13 963 11 l958 -3 3 -1818z m-4304 721 c29 -30 44 -79 191
-595 88 -310 162 -563 165 -563 3 0 77 253 165 561 153 537 161 562 193 590
55 48 144 29 170 -37 6 -16 79 -267 162 -559 83 -291 154 -538 158 -548 5 -12
60 166 166 540 88 307 165 570 173 585 15 30 60 58 93 58 52 0 110 -57 110
-107 0 -22 -425 -1510 -442 -1548 -15 -33 -56 -55 -103 -55 -76 0 -74 -4 -255
629 l-164 573 -162 -568 c-151 -529 -165 -571 -193 -596 -50 -45 -131 -35
-163 20 -9 15 -113 368 -232 786 -200 698 -216 761 -205 793 13 41 60 73 108
73 24 0 41 -9 65 -32z"/>
</g>
</svg>
